<svg width="655" height="670" xmlns="http://www.w3.org/2000/svg" xmlns:xlink="http://www.w3.org/1999/xlink" xml:space="preserve" overflow="hidden"><g transform="translate(-1870 -902)"><g><path d="M2522 1241.89C2522 1417.68 2374.81 1569 2192.63 1569 2014.89 1569 1870 1424.43 1870 1241.89 1870 1063.41 2017.88 909.442 2194.86 906 2375.22 906 2522 1058.18 2522 1241.89Z" fill="#D9F2D0" fill-rule="evenodd" fill-opacity="1"/><path d="M2190.81 1292C2157.1 1292 2134.99 1308.17 2125.48 1326.75 2121.95 1333.95 2114.98 1334.61 2110.44 1333.95 2053.42 1327.59 2007.38 1380.13 2000.31 1431.72 1998.25 1446.69 2006.87 1455 2015.35 1455L2376.51 1455C2389.94 1455 2393.75 1440.08 2391.31 1429.56 2377.75 1375.1 2341.43 1335.61 2286.39 1336.27 2274.96 1336.44 2270.26 1338.44 2263.08 1330.29 2242.14 1306.84 2220.41 1292 2190.81 1292Z" fill="#975E3B" fill-rule="evenodd" fill-opacity="1"/><path d="M2187.97 1392.8C2190.17 1392.8 2194.25 1393.08 2203.67 1395 2206.79 1361.19 2235.8 1316.51 2244.99 1316.1 2255.24 1315.69 2257.88 1317.4 2270.36 1317.16 2298.64 1316.61 2328.09 1309.75 2328.74 1299.45 2329.29 1290.63 2321.27 1291.66 2317.29 1289.95 2315.82 1289.26 2318.73 1288.23 2320.55 1287.85 2335.7 1284.87 2358.37 1274.81 2357.95 1266.27 2357.61 1259.13 2348.49 1259.54 2347.53 1257.72 2346.47 1255.69 2383.02 1240.49 2382.06 1225.77 2381.47 1219.97 2377.63 1219.52 2367.38 1218.63 2383.29 1204.21 2397.28 1180.98 2395.91 1168.56 2394.12 1152.22 2364.98 1159.08 2329.88 1178.82 2330.7 1174.22 2330.59 1164.75 2321.13 1162 2311.05 1158.84 2293.67 1178.13 2283.93 1192.2 2281.67 1189.46 2280.16 1180.02 2273.24 1181.6 2261.79 1184.41 2250.64 1215.37 2246.87 1222.71 2244.13 1214.75 2241.97 1209.36 2234.39 1211.8 2217.52 1217.6 2211.9 1271.86 2215.36 1288.37 2216.6 1294.3 2222.32 1290.56 2224.14 1287.58 2249.2 1252.3 2276.39 1234.93 2323.29 1214 2326.31 1212.45 2328.64 1215.51 2325.21 1217.77 2279.75 1250.68 2237.31 1295.85 2207.14 1335.52 2204.09 1339.64 2202.44 1336 2202.58 1332.92 2201.75 1286.17 2206.28 1212.9 2232.61 1158.64 2237.31 1154.97 2244.99 1155.86 2256.16 1154.38 2273 1152.12 2290.21 1149.58 2294.6 1141.55 2296.48 1137.7 2287.91 1137.02 2284.07 1134.72 2303.27 1127.34 2317.36 1114.06 2316.98 1105.24 2316.54 1099.5 2310.54 1099.37 2306.49 1100.05 2321.13 1081.55 2329.74 1056.88 2322.02 1050.67 2313.18 1043.46 2289.25 1055.61 2280.44 1064.91 2279.75 1060.65 2280.03 1054.13 2274.68 1053.86 2267.24 1053.45 2257.29 1065.39 2253.45 1072.91 2250.99 1070.37 2249 1065.73 2244.27 1068.51 2236.62 1072.91 2229.46 1089.28 2227.47 1099.64 2225.1 1097.86 2226.2 1089.28 2222.05 1089.55 2211.15 1089.83 2213.07 1126.38 2221.23 1149.58 2216.98 1157.68 2210.74 1168.45 2209.12 1168.04 2207.34 1152.29 2205.46 1135.06 2201.89 1118.28 2208.85 1104.17 2211.15 1081.42 2205.87 1075.41 2202.99 1072.15 2200.42 1074.72 2198.91 1075.69 2200.01 1069.89 2197.3 1057.32 2191.91 1056.29 2189.34 1055.75 2188.25 1057.53 2186.6 1058.08 2184.99 1051.35 2177.27 1039.68 2172.75 1040.1 2169.56 1040.37 2168.88 1043.05 2167.95 1044.69 2161.88 1037.97 2154.03 1032.58 2146.45 1033.03 2140.73 1033.3 2144.16 1057.12 2149.85 1064.5 2147.28 1064.77 2145.39 1064.22 2144.98 1066.69 2144.29 1071.12 2152.28 1080.22 2157.18 1083.79 2154.99 1084.33 2152.28 1084.06 2152.42 1086.39 2152.83 1092.88 2164.9 1105.92 2170.25 1108.53 2177.27 1112.13 2185.23 1113.64 2192.05 1116.36 2200.14 1149.44 2198.22 1180.98 2192.36 1201.23 2186.33 1221.89 2184.3 1238.53 2184.44 1260.84 2152.28 1210.87 2115.46 1168.59 2070.07 1132.31 2067.08 1129.84 2068.7 1127.2 2071.71 1129.16 2104.56 1148.1 2129.79 1168.04 2162.5 1203.73 2169.56 1209.77 2172.89 1200.68 2171.27 1172.33 2169.29 1148.31 2160.1 1123.05 2150.81 1123.46 2143.71 1123.8 2142.24 1130.53 2139.49 1137.98 2134.8 1118.28 2121.22 1092.74 2113.78 1094.39 2108.26 1095.76 2107.16 1101.43 2104.28 1106.61 2095.71 1090.51 2082.03 1073.11 2069.11 1075.41 2061.87 1076.78 2063.11 1086.39 2063.24 1091.34 2040.86 1076.1 2017.03 1068.79 2002.42 1073.73 1986.52 1079.53 2002.42 1112.27 2025.36 1132.73 2018.4 1133.55 2009.45 1133.96 2007.39 1137.98 2002.01 1149.03 2024.54 1163.37 2043.74 1171.64 2037.46 1174.12 2030.02 1176.35 2030.71 1181.53 2032.32 1192.89 2060.26 1200.95 2076.17 1204.83 2070.2 1207.3 2064.48 1209.09 2064.62 1215.51 2065.03 1229.58 2101.71 1235.34 2131.81 1231.91 2139.36 1230.98 2145.25 1228.75 2149.02 1233.56 2171.69 1263.01 2181.56 1280.13 2181.15 1310.16L2180.87 1391.71C2180.87 1391.71 2183.99 1392.8 2187.97 1392.8Z" fill="#47D45A" fill-rule="evenodd" fill-opacity="1"/></g></g></svg>